<svg width="196" height="58" viewBox="0 0 196 58" fill="white" xmlns="http://www.w3.org/2000/svg">
<path d="M38.5342 57.0392H28.3238V38.4769C28.3238 33.4683 24.26 29.4001 19.2569 29.4001C14.2538 29.4001 10.19 33.4683 10.19 38.4769V57.0392H0V38.4769C0 27.8465 8.63804 19.1786 19.2773 19.1786C29.9166 19.1786 38.5546 27.826 38.5546 38.4769V57.0392H38.5342Z" fill="white"/>
<path d="M54.0132 57.0392H43.8027V20.2416C43.8027 9.5908 52.4408 0.94339 63.0801 0.94339V11.1649C58.0769 11.1649 54.0132 15.2331 54.0132 20.2416V21.4478C56.7087 19.9963 59.7923 19.1786 63.0801 19.1786V29.4001C58.0769 29.4001 54.0132 33.4683 54.0132 38.4769V57.0392V57.0392Z" fill="white"/>
<path d="M102.411 6.56534H92.2002V56.5282H102.411V6.56534Z" fill="white"/>
<path d="M87.2803 56.7734C76.6614 56.7734 68.0029 48.126 68.0029 37.4752V7.32166H78.2134V37.4752C78.2134 42.4837 82.2771 46.5519 87.2803 46.5519V56.7734V56.7734Z" fill="white"/>
<path d="M87.2803 18.1974H74.9053V28.4189H87.2803V18.1974Z" fill="white"/>
<path d="M135.922 57.0396H125.712V38.4773C125.712 32.8555 123.078 29.4006 121.648 29.4006C120.219 29.4006 117.584 32.835 117.584 38.4773V57.0396H107.374V38.4773C107.374 27.6629 113.643 19.1791 121.648 19.1791C129.653 19.1791 135.922 27.6629 135.922 38.4773V57.0396V57.0396Z" fill="white"/>
<path d="M154.26 56.7735H144.05V38.2112C144.05 32.5893 141.416 29.1344 139.986 29.1344C138.557 29.1344 135.922 32.5689 135.922 38.2112V56.7735H125.712V38.2112C125.712 27.3968 131.981 18.9129 139.986 18.9129C147.991 18.9129 154.26 27.3763 154.26 38.2112V56.7735V56.7735Z" fill="white"/>
<path d="M176.764 58C171.883 58 167.227 56.1806 163.633 52.8279C159.876 49.3117 157.69 44.5485 157.507 39.3968C157.323 34.2452 159.161 29.3388 162.673 25.5773C166.186 21.8158 170.944 19.6284 176.09 19.4444C181.175 19.2604 186.137 21.1003 189.894 24.6165C193.652 28.1327 195.837 32.8959 196 38.0476V43.833H169.249C169.616 44.3849 170.066 44.896 170.556 45.3458C172.332 47.0016 174.599 47.8194 177.049 47.7785C179.765 47.6763 182.257 46.3884 183.911 44.2418L191.998 50.477C188.485 55.0562 183.155 57.7956 177.376 58C177.152 58 176.907 58 176.682 58H176.764ZM169.29 33.6114H184.258C183.891 33.0595 183.441 32.5484 182.951 32.0782C181.175 30.4223 178.887 29.5433 176.457 29.6455C174.048 29.7273 171.801 30.7494 170.147 32.528C169.841 32.8755 169.535 33.223 169.29 33.6114V33.6114Z" fill="white"/>
</svg>
